<?xml version="1.0" encoding="UTF-8"?>
<svg id="Capa_1" xmlns="http://www.w3.org/2000/svg" version="1.1" viewBox="0 0 800 152">
  <!-- Generator: Adobe Illustrator 29.4.0, SVG Export Plug-In . SVG Version: 2.1.0 Build 152)  -->
  <defs>
    <style>
      .st0 {
        fill: #00d3f2;
      }

      .st1 {
        fill: #2d3852;
      }
    </style>
  </defs>
  <path class="st1" d="M216.3,126.5v-14.6h28.5c7.1,0,13.1-1.6,18.1-4.9,5-3.2,8.8-7.7,11.4-13.5,2.7-5.8,4.1-12.5,4.1-20.2s-1.4-14.6-4.1-20.3c-2.6-5.8-6.4-10.2-11.4-13.4-5-3.2-11-4.9-18.1-4.9h-28.5v-14.6h28.5c10.1,0,18.8,2.3,26.1,6.8,7.3,4.5,12.9,10.7,16.9,18.7,3.9,7.9,5.9,17.1,5.9,27.6s-2,19.8-5.9,27.8c-3.9,7.9-9.6,14.1-16.9,18.7-7.3,4.5-16,6.7-26.1,6.7h-28.5ZM207.7,126.5V20.2h15.2v106.3h-15.2Z"/>
  <path class="st1" d="M343.7,128.7c-7.6,0-14.3-1.7-20.2-5-5.8-3.4-10.3-8.2-13.5-14.3-3.2-6.1-4.9-13.1-4.9-21.1s1.6-15,4.7-21c3.2-6.1,7.7-10.8,13.4-14.1,5.8-3.4,12.4-5.2,19.9-5.2s13.8,1.7,19.3,5.2c5.6,3.4,9.9,8.3,12.9,14.6,3.1,6.2,4.7,13.4,4.7,21.7v2.3l-2.3,2.3h-64.8v-13.4h59.8l-7.7,3c-.2-4.6-1.3-8.5-3.3-11.7-1.9-3.2-4.5-5.7-7.7-7.4-3.1-1.8-6.7-2.7-10.6-2.7s-8.1,1-11.7,3c-3.5,2-6.3,4.9-8.4,8.5-1.9,3.5-2.9,7.7-2.9,12.5v4.6c0,4.7,1,8.9,3,12.6,2,3.6,4.8,6.5,8.4,8.7,3.5,2.1,7.5,3.2,12,3.2s8-1.1,11.2-3.2c3.3-2.2,6-5.2,7.9-8.8h1.8l12.3,5.3c-2.9,6.4-7.3,11.4-13.1,15-5.8,3.6-12.5,5.5-20.2,5.5Z"/>
  <path class="st1" d="M429.1,128.7c-7.7,0-14.5-1.7-20.3-5-5.9-3.4-10.5-8.2-13.8-14.3-3.2-6.1-4.9-13.1-4.9-21.1s1.6-15,4.9-21c3.3-6.1,7.9-10.8,13.8-14.1,5.9-3.4,12.7-5.2,20.3-5.2s11.3,1,15.9,3c4.8,2,8.8,5,12.1,9,3.3,3.8,5.8,8.6,7.4,14.3l-12.9,3.6h-1.7c-1.6-5-4.4-8.9-8.2-11.7-3.7-2.8-8-4.3-12.8-4.3s-9.1,1.1-12.6,3.3c-3.5,2.2-6.3,5.3-8.4,9.3-1.9,3.8-2.9,8.4-2.9,13.7s1,9.9,2.9,13.8c2,3.9,4.8,7,8.4,9.3,3.5,2.1,7.7,3.2,12.6,3.2s6.6-.6,9.4-1.8c2.8-1.2,5.3-3,7.3-5.3,2.1-2.4,3.7-5.3,4.9-8.7h1.7l13.1,3.6c-1.8,5.7-4.5,10.5-7.9,14.4-3.4,3.9-7.5,6.9-12.3,9-4.7,1.9-10,2.9-16.1,2.9Z"/>
  <path class="st1" d="M513.2,128.7c-7.6,0-14.3-1.7-20.2-5-5.8-3.4-10.3-8.2-13.5-14.3-3.2-6.1-4.9-13.1-4.9-21.1s1.6-15,4.7-21c3.2-6.1,7.7-10.8,13.4-14.1,5.8-3.4,12.4-5.2,19.9-5.2s13.8,1.7,19.3,5.2c5.6,3.4,9.9,8.3,12.9,14.6,3.1,6.2,4.7,13.4,4.7,21.7v2.3l-2.3,2.3h-64.8v-13.4h59.8l-7.7,3c-.2-4.6-1.3-8.5-3.3-11.7-1.9-3.2-4.5-5.7-7.7-7.4-3.1-1.8-6.7-2.7-10.6-2.7s-8.1,1-11.7,3c-3.5,2-6.3,4.9-8.4,8.5-1.9,3.5-2.9,7.7-2.9,12.5v4.6c0,4.7,1,8.9,3,12.6,2,3.6,4.8,6.5,8.4,8.7,3.5,2.1,7.5,3.2,12,3.2s8-1.1,11.2-3.2c3.3-2.2,6-5.2,7.9-8.8h1.8l12.3,5.3c-2.9,6.4-7.3,11.4-13.1,15-5.8,3.6-12.5,5.5-20.2,5.5Z"/>
  <path class="st1" d="M564.6,126.5V17.2l14.7-1.8.5,1.2v109.9h-15.2Z"/>
  <path class="st1" d="M633.4,128.7c-7.6,0-14.3-1.7-20.2-5-5.8-3.4-10.3-8.2-13.5-14.3-3.2-6.1-4.9-13.1-4.9-21.1s1.6-15,4.7-21c3.2-6.1,7.7-10.8,13.4-14.1,5.8-3.4,12.4-5.2,19.9-5.2s13.8,1.7,19.3,5.2c5.6,3.4,9.9,8.3,12.9,14.6,3.1,6.2,4.7,13.4,4.7,21.7v2.3l-2.3,2.3h-64.8v-13.4h59.8l-7.7,3c-.2-4.6-1.3-8.5-3.3-11.7-1.9-3.2-4.5-5.7-7.7-7.4-3.1-1.8-6.7-2.7-10.6-2.7s-8.1,1-11.7,3c-3.5,2-6.3,4.9-8.4,8.5-1.9,3.5-2.9,7.7-2.9,12.5v4.6c0,4.7,1,8.9,3,12.6,2,3.6,4.8,6.5,8.4,8.7,3.5,2.1,7.5,3.2,12,3.2s8-1.1,11.2-3.2c3.3-2.2,6-5.2,7.9-8.8h1.8l12.3,5.3c-2.9,6.4-7.3,11.4-13.1,15-5.8,3.6-12.5,5.5-20.2,5.5Z"/>
  <path class="st1" d="M684.1,126.5V50.2h14.4v20.5l-4.1-1.4c2-5.9,5.5-10.5,10.3-14,5-3.4,10.6-5.2,17-5.2h7.4v14h-9.9c-4,0-7.6,1-10.6,2.9-2.9,1.8-5.3,4.4-7,7.7-1.6,3.3-2.4,7.3-2.4,11.8v39.9h-15.2Z"/>
  <path class="st1" d="M759.6,128.7c-5.2,0-9.8-1-14-3-4.1-2-7.2-4.8-9.6-8.4-2.3-3.6-3.5-7.8-3.5-12.5,0-7,2.4-12.6,7.3-16.7,4.9-4.3,11.7-6.7,20.7-7.4l29.5-2.4v13.1l-26.9,2.1c-5.2.4-9,1.5-11.4,3.3-2.4,1.8-3.6,4.3-3.6,7.4s1.3,5.6,3.9,7.6c2.6,1.9,6,2.9,10,2.9s8.1-1,11.5-3c3.5-2,6.3-4.7,8.4-8,2-3.4,3-7.1,3-11.1v-12.5c0-5.4-1.7-9.8-5.2-13.2-3.3-3.4-7.8-5.2-13.4-5.2s-8.6,1.1-11.7,3.3c-3,2.2-5.1,5.2-6.1,8.8h-1.7l-13.1-3.6c2-6.8,5.9-12.2,11.5-16.2,5.7-4,12.7-6.1,21-6.1s18.9,3.1,24.8,9.4c5.9,6.2,8.8,14.9,8.8,26.1v43.1h-14v-22.2l5.5,1.7c-1.2,4.2-3.4,7.9-6.5,11.4-3,3.4-6.7,6.2-11.1,8.2-4.4,2-9.1,3-14.3,3Z"/>
  <g>
    <path class="st0" d="M46.7,23.1c20.3-11.2,45.6-9.8,64.5,3.6,1.7,1.2,3.7,1.7,5.8,1.3,2-.3,3.8-1.5,5-3.1,2.5-3.5,1.6-8.3-1.8-10.8C108.6,5.9,95.1,1.1,80.9.2c-1.6-.1-3.3-.2-4.9-.2C63.2,0,50.5,3.3,39.2,9.6c-12.8,7.1-23.2,17.6-30.1,30.4C2.4,52.5-.7,66.5.1,80.6c.2,4.1,3.6,7.3,7.7,7.3h0c.1,0,.3,0,.4,0,4.3-.3,7.5-3.9,7.3-8.2-1.4-23.1,10.9-45.4,31.1-56.6Z"/>
    <path class="st0" d="M151.9,71.4c-.1-2.1-1-3.9-2.6-5.3-1.5-1.4-3.5-2.1-5.6-1.9-4.2.3-7.5,3.9-7.3,8.2,1.4,23.1-10.9,45.4-31.1,56.6-20.3,11.3-45.6,9.8-64.5-3.6-1.3-.9-2.9-1.4-4.4-1.4s-.9,0-1.3.1c-2,.3-3.8,1.5-5,3.1-2.5,3.5-1.6,8.3,1.8,10.8,11.5,8.2,25.1,13,39.2,13.9,1.1,0,2.2.1,3.4.1h1.5c12.8,0,25.5-3.3,36.8-9.6,12.8-7.1,23.2-17.6,30.1-30.4,6.7-12.5,9.8-26.5,9-40.6Z"/>
  </g>
</svg>